<svg width="26" height="26" viewBox="0 0 26 26" fill="none" xmlns="http://www.w3.org/2000/svg">
<path d="M0 7C0 3.134 3.13401 0 7 0H18.6889C22.5549 0 25.6889 3.13401 25.6889 7V18.6889C25.6889 22.5549 22.5549 25.6889 18.6889 25.6889H7C3.134 25.6889 0 22.5549 0 18.6889V7Z" fill="#5758E3" fill-opacity="0.2"/>
<mask id="mask0_3287_4463" style="mask-type:alpha" maskUnits="userSpaceOnUse" x="3" y="3" width="19" height="19">
<rect x="3.77734" y="3.77734" width="18.1333" height="18.1333" fill="#D9D9D9"/>
</mask>
<g mask="url(#mask0_3287_4463)">
<path d="M9.06595 13.9776V18.8887C9.06595 19.0493 9.01161 19.1838 8.90294 19.2924C8.79427 19.4011 8.65965 19.4554 8.4991 19.4554C8.33841 19.4554 8.20386 19.4011 8.09544 19.2924C7.98689 19.1838 7.93262 19.0493 7.93262 18.8887V7.86063C7.93262 7.66709 7.9981 7.50489 8.12906 7.37406C8.2599 7.24309 8.42209 7.17761 8.61564 7.17761H13.4844C13.6458 7.17761 13.7897 7.22823 13.9164 7.32948C14.043 7.43072 14.1228 7.56219 14.1558 7.72388L14.3518 8.68872H17.8274C18.0209 8.68872 18.1831 8.75389 18.3139 8.88422C18.4449 9.01456 18.5104 9.17606 18.5104 9.36872V14.8089C18.5104 15.0016 18.4449 15.163 18.3139 15.2932C18.1831 15.4236 18.0209 15.4887 17.8274 15.4887H14.4697C14.3084 15.4887 14.1644 15.4381 14.0377 15.3369C13.9111 15.2356 13.8314 15.1041 13.7984 14.9425L13.6023 13.9776H9.06595ZM14.846 14.3554H17.3771V9.82206H13.9755C13.8144 9.82206 13.6704 9.77144 13.5438 9.67019C13.4171 9.56895 13.3372 9.43748 13.3042 9.27579L13.1082 8.31095H9.06595V12.8443H13.9786C14.1398 12.8443 14.2837 12.8949 14.4104 12.9961C14.5371 13.0974 14.6169 13.2289 14.6499 13.3905L14.846 14.3554Z" fill="#5758E3"/>
<path d="M9.06595 13.9776V18.8887C9.06595 19.0493 9.01161 19.1838 8.90294 19.2924C8.79427 19.4011 8.65965 19.4554 8.4991 19.4554C8.33841 19.4554 8.20386 19.4011 8.09544 19.2924C7.98689 19.1838 7.93262 19.0493 7.93262 18.8887V7.86063C7.93262 7.66709 7.9981 7.50489 8.12906 7.37406C8.2599 7.24309 8.42209 7.17761 8.61564 7.17761H13.4844C13.6458 7.17761 13.7897 7.22823 13.9164 7.32948C14.043 7.43072 14.1228 7.56219 14.1558 7.72388L14.3518 8.68872H17.8274C18.0209 8.68872 18.1831 8.75389 18.3139 8.88422C18.4449 9.01456 18.5104 9.17606 18.5104 9.36872V14.8089C18.5104 15.0016 18.4449 15.163 18.3139 15.2932C18.1831 15.4236 18.0209 15.4887 17.8274 15.4887H14.4697C14.3084 15.4887 14.1644 15.4381 14.0377 15.3369C13.9111 15.2356 13.8314 15.1041 13.7984 14.9425L13.6023 13.9776H9.06595ZM14.846 14.3554H17.3771V9.82206H13.9755C13.8144 9.82206 13.6704 9.77144 13.5438 9.67019C13.4171 9.56895 13.3372 9.43748 13.3042 9.27579L13.1082 8.31095H9.06595V12.8443H13.9786C14.1398 12.8443 14.2837 12.8949 14.4104 12.9961C14.5371 13.0974 14.6169 13.2289 14.6499 13.3905L14.846 14.3554Z" fill="#5758E3" fill-opacity="0.75"/>
<path d="M9.06595 13.9776V18.8887C9.06595 19.0493 9.01161 19.1838 8.90294 19.2924C8.79427 19.4011 8.65965 19.4554 8.4991 19.4554C8.33841 19.4554 8.20386 19.4011 8.09544 19.2924C7.98689 19.1838 7.93262 19.0493 7.93262 18.8887V7.86063C7.93262 7.66709 7.9981 7.50489 8.12906 7.37406C8.2599 7.24309 8.42209 7.17761 8.61564 7.17761H13.4844C13.6458 7.17761 13.7897 7.22823 13.9164 7.32948C14.043 7.43072 14.1228 7.56219 14.1558 7.72388L14.3518 8.68872H17.8274C18.0209 8.68872 18.1831 8.75389 18.3139 8.88422C18.4449 9.01456 18.5104 9.17606 18.5104 9.36872V14.8089C18.5104 15.0016 18.4449 15.163 18.3139 15.2932C18.1831 15.4236 18.0209 15.4887 17.8274 15.4887H14.4697C14.3084 15.4887 14.1644 15.4381 14.0377 15.3369C13.9111 15.2356 13.8314 15.1041 13.7984 14.9425L13.6023 13.9776H9.06595ZM14.846 14.3554H17.3771V9.82206H13.9755C13.8144 9.82206 13.6704 9.77144 13.5438 9.67019C13.4171 9.56895 13.3372 9.43748 13.3042 9.27579L13.1082 8.31095H9.06595V12.8443H13.9786C14.1398 12.8443 14.2837 12.8949 14.4104 12.9961C14.5371 13.0974 14.6169 13.2289 14.6499 13.3905L14.846 14.3554Z" fill="#5758E3" fill-opacity="0.5"/>
<path d="M9.06595 13.9776V18.8887C9.06595 19.0493 9.01161 19.1838 8.90294 19.2924C8.79427 19.4011 8.65965 19.4554 8.4991 19.4554C8.33841 19.4554 8.20386 19.4011 8.09544 19.2924C7.98689 19.1838 7.93262 19.0493 7.93262 18.8887V7.86063C7.93262 7.66709 7.9981 7.50489 8.12906 7.37406C8.2599 7.24309 8.42209 7.17761 8.61564 7.17761H13.4844C13.6458 7.17761 13.7897 7.22823 13.9164 7.32948C14.043 7.43072 14.1228 7.56219 14.1558 7.72388L14.3518 8.68872H17.8274C18.0209 8.68872 18.1831 8.75389 18.3139 8.88422C18.4449 9.01456 18.5104 9.17606 18.5104 9.36872V14.8089C18.5104 15.0016 18.4449 15.163 18.3139 15.2932C18.1831 15.4236 18.0209 15.4887 17.8274 15.4887H14.4697C14.3084 15.4887 14.1644 15.4381 14.0377 15.3369C13.9111 15.2356 13.8314 15.1041 13.7984 14.9425L13.6023 13.9776H9.06595ZM14.846 14.3554H17.3771V9.82206H13.9755C13.8144 9.82206 13.6704 9.77144 13.5438 9.67019C13.4171 9.56895 13.3372 9.43748 13.3042 9.27579L13.1082 8.31095H9.06595V12.8443H13.9786C14.1398 12.8443 14.2837 12.8949 14.4104 12.9961C14.5371 13.0974 14.6169 13.2289 14.6499 13.3905L14.846 14.3554Z" fill="#5758E3" fill-opacity="0.1"/>
</g>
</svg>
